<svg width="112" height="28" viewBox="0 0 112 28" fill="none" xmlns="http://www.w3.org/2000/svg">
<rect width="28" height="28" rx="8" fill="#0F0F0F"/>
<path d="M19.1439 9.98074C19.1437 9.68262 19.0252 9.39676 18.8144 9.18595C18.6036 8.97514 18.3178 8.85663 18.0196 8.85644L12.0195 8.85538C11.8717 8.85538 11.7254 8.88449 11.5888 8.94105C11.4523 8.9976 11.3282 9.08049 11.2237 9.18499C11.1192 9.28949 11.0363 9.41355 10.9798 9.55009C10.9232 9.68662 10.8941 9.83296 10.8941 9.98074C10.8941 10.1285 10.9232 10.2749 10.9798 10.4114C11.0363 10.5479 11.1192 10.672 11.2237 10.7765C11.3282 10.881 11.4523 10.9639 11.5888 11.0204C11.7254 11.077 11.8717 11.1061 12.0195 11.1061H15.3033L9.18592 17.2235C8.97495 17.4344 8.85642 17.7206 8.85642 18.019C8.85642 18.3173 8.97495 18.6035 9.18592 18.8145C9.3969 19.0254 9.68305 19.144 9.98142 19.144C10.2798 19.144 10.5659 19.0254 10.7769 18.8145L16.8943 12.6971L16.8943 15.9809C16.8943 16.2793 17.0129 16.5654 17.224 16.7764C17.435 16.9873 17.7212 17.1058 18.0196 17.1057C18.318 17.1057 18.6042 16.9871 18.8151 16.776C19.0261 16.565 19.1445 16.2788 19.1445 15.9804L19.1439 9.98074Z" fill="white"/>
<path d="M46.47 22.264C44.9153 22.264 43.5807 21.934 42.466 21.274C41.3513 20.5993 40.4933 19.668 39.892 18.48C39.2907 17.2773 38.99 15.8913 38.99 14.322C38.99 12.7527 39.2907 11.3667 39.892 10.164C40.4933 8.96133 41.3513 8.02267 42.466 7.348C43.5807 6.67333 44.9153 6.336 46.47 6.336C48.318 6.336 49.8287 6.798 51.002 7.722C52.19 8.63133 52.9307 9.91467 53.224 11.572H50.122C49.9313 10.736 49.5207 10.0833 48.89 9.614C48.274 9.13 47.4527 8.888 46.426 8.888C45.0033 8.888 43.8887 9.372 43.082 10.34C42.2753 11.308 41.872 12.6353 41.872 14.322C41.872 16.0087 42.2753 17.336 43.082 18.304C43.8887 19.2573 45.0033 19.734 46.426 19.734C47.4527 19.734 48.274 19.514 48.89 19.074C49.5207 18.6193 49.9313 17.996 50.122 17.204H53.224C52.9307 18.788 52.19 20.0273 51.002 20.922C49.8287 21.8167 48.318 22.264 46.47 22.264ZM60.0067 22.264C58.9507 22.264 57.9974 22.022 57.1467 21.538C56.3107 21.054 55.6434 20.3867 55.1447 19.536C54.6607 18.6707 54.4187 17.6733 54.4187 16.544C54.4187 15.4147 54.668 14.4247 55.1667 13.574C55.6654 12.7087 56.3327 12.034 57.1687 11.55C58.0194 11.066 58.9727 10.824 60.0287 10.824C61.07 10.824 62.0087 11.066 62.8447 11.55C63.6954 12.034 64.3627 12.7087 64.8467 13.574C65.3454 14.4247 65.5947 15.4147 65.5947 16.544C65.5947 17.6733 65.3454 18.6707 64.8467 19.536C64.3627 20.3867 63.6954 21.054 62.8447 21.538C61.994 22.022 61.048 22.264 60.0067 22.264ZM60.0067 19.822C60.74 19.822 61.378 19.5507 61.9207 19.008C62.4634 18.4507 62.7347 17.6293 62.7347 16.544C62.7347 15.4587 62.4634 14.6447 61.9207 14.102C61.378 13.5447 60.7474 13.266 60.0287 13.266C59.2807 13.266 58.6354 13.5447 58.0927 14.102C57.5647 14.6447 57.3007 15.4587 57.3007 16.544C57.3007 17.6293 57.5647 18.4507 58.0927 19.008C58.6354 19.5507 59.2734 19.822 60.0067 19.822ZM68.7505 9.394C68.2372 9.394 67.8118 9.24 67.4745 8.932C67.1518 8.624 66.9905 8.23533 66.9905 7.766C66.9905 7.29667 67.1518 6.91533 67.4745 6.622C67.8118 6.314 68.2372 6.16 68.7505 6.16C69.2638 6.16 69.6818 6.314 70.0045 6.622C70.3418 6.91533 70.5105 7.29667 70.5105 7.766C70.5105 8.23533 70.3418 8.624 70.0045 8.932C69.6818 9.24 69.2638 9.394 68.7505 9.394ZM67.3425 22V11.088H70.1585V22H67.3425ZM72.2177 22V11.088H74.7037L74.9237 12.936C75.2611 12.2907 75.7451 11.7773 76.3757 11.396C77.0211 11.0147 77.7764 10.824 78.6417 10.824C79.9911 10.824 81.0397 11.2493 81.7877 12.1C82.5357 12.9507 82.9097 14.1973 82.9097 15.84V22H80.0937V16.104C80.0937 15.1653 79.9031 14.4467 79.5217 13.948C79.1404 13.4493 78.5464 13.2 77.7397 13.2C76.9477 13.2 76.2951 13.4787 75.7817 14.036C75.2831 14.5933 75.0337 15.3707 75.0337 16.368V22H72.2177ZM90.7285 22.264C89.5992 22.264 88.5798 22.044 87.6705 21.604C86.7612 21.1493 86.0352 20.4673 85.4925 19.558C84.9645 18.6487 84.7005 17.4973 84.7005 16.104V6.6H87.5165V16.126C87.5165 17.3287 87.8025 18.2233 88.3745 18.81C88.9612 19.3967 89.7678 19.69 90.7945 19.69C91.8065 19.69 92.6058 19.3967 93.1925 18.81C93.7792 18.2233 94.0725 17.3287 94.0725 16.126V6.6H96.8885V16.104C96.8885 17.4973 96.6098 18.6487 96.0525 19.558C95.4952 20.4673 94.7472 21.1493 93.8085 21.604C92.8845 22.044 91.8578 22.264 90.7285 22.264ZM98.8171 26.84V11.088H101.325L101.633 12.65C101.985 12.166 102.447 11.7407 103.019 11.374C103.606 11.0073 104.361 10.824 105.285 10.824C106.312 10.824 107.228 11.0733 108.035 11.572C108.842 12.0707 109.48 12.7527 109.949 13.618C110.418 14.4833 110.653 15.466 110.653 16.566C110.653 17.666 110.418 18.6487 109.949 19.514C109.48 20.3647 108.842 21.0393 108.035 21.538C107.228 22.022 106.312 22.264 105.285 22.264C104.464 22.264 103.745 22.11 103.129 21.802C102.513 21.494 102.014 21.0613 101.633 20.504V26.84H98.8171ZM104.691 19.8C105.586 19.8 106.326 19.4993 106.913 18.898C107.5 18.2967 107.793 17.5193 107.793 16.566C107.793 15.6127 107.5 14.828 106.913 14.212C106.326 13.596 105.586 13.288 104.691 13.288C103.782 13.288 103.034 13.596 102.447 14.212C101.875 14.8133 101.589 15.5907 101.589 16.544C101.589 17.4973 101.875 18.282 102.447 18.898C103.034 19.4993 103.782 19.8 104.691 19.8Z" fill="#0F0F0F"/>
</svg>
